<?xml version="1.0" standalone="no"?>
<!DOCTYPE svg PUBLIC "-//W3C//DTD SVG 20010904//EN"
"http://www.w3.org/TR/2001/REC-SVG-20010904/DTD/svg10.dtd">
<svg version="1.0" xmlns="http://www.w3.org/2000/svg"
width="50px" height="50px" viewBox="0 0 3000.000000 3000.000000"
preserveAspectRatio="xMidYMid meet">

<g transform="translate(0.000000,3000.000000) scale(0.100000,-0.100000)"
fill="#000000" stroke="none">
<path d="M19350 25613 c-105 -19 -370 -103 -830 -267 -85 -30 -265 -94 -400
-141 -706 -249 -1013 -376 -1106 -458 -108 -95 -123 -236 -38 -336 19 -21 52
-48 75 -59 l40 -20 -63 -35 c-35 -19 -187 -97 -338 -174 -294 -149 -500 -264
-576 -322 -27 -21 -60 -59 -78 -91 -27 -49 -31 -64 -31 -135 0 -63 5 -89 22
-121 53 -100 160 -149 271 -126 84 18 363 104 685 213 158 53 287 95 287 94 0
-2 -75 -43 -167 -91 -174 -90 -334 -178 -583 -319 -80 -45 -219 -121 -310
-170 -161 -86 -270 -146 -590 -323 -218 -121 -266 -170 -288 -293 -11 -56 -3
-118 20 -163 22 -45 83 -96 131 -112 75 -25 130 -14 347 69 245 93 1795 608
1826 607 14 -1 -160 -82 -466 -217 -419 -184 -564 -251 -775 -355 -104 -51
-244 -117 -310 -145 -219 -95 -628 -277 -820 -365 -66 -31 -230 -106 -365
-168 -135 -62 -284 -132 -332 -156 -48 -24 -91 -44 -95 -44 -3 0 63 39 148 88
221 125 288 199 289 320 0 64 -20 116 -63 160 -60 63 -142 90 -220 72 -64 -14
-568 -248 -1072 -499 -170 -84 -438 -214 -595 -289 -157 -74 -393 -187 -525
-250 -278 -132 -659 -311 -825 -387 -63 -28 -212 -96 -330 -150 -118 -53 -271
-123 -340 -155 -178 -82 -320 -146 -430 -195 -252 -112 -762 -341 -905 -405
-88 -40 -207 -93 -265 -120 -58 -26 -285 -127 -505 -224 -220 -98 -445 -198
-500 -223 -208 -94 -421 -188 -830 -368 -71 -32 -182 -81 -245 -110 -63 -29
-178 -81 -255 -115 -77 -35 -189 -85 -249 -112 -122 -56 -156 -69 -156 -64 0
6 503 322 720 453 1159 701 2639 1482 3935 2078 362 166 753 344 880 400 234
103 289 127 345 152 359 162 1272 548 1715 725 83 33 164 67 180 75 58 30 106
76 131 126 22 43 25 61 22 117 -5 92 -42 153 -118 193 -90 47 -147 39 -415
-62 -121 -46 -281 -105 -355 -131 -1017 -360 -2273 -839 -3100 -1183 -180 -74
-1046 -445 -1280 -547 -433 -189 -775 -342 -1000 -445 -52 -24 -189 -86 -305
-138 -115 -53 -302 -139 -415 -192 -211 -100 -239 -112 -230 -103 5 5 383 226
650 380 464 267 1135 622 1660 878 402 196 452 219 1055 492 261 118 929 402
1073 457 186 70 590 213 967 341 506 172 590 202 730 257 153 60 207 88 261
135 124 109 100 309 -46 383 -40 20 -64 25 -127 25 -112 0 -274 -50 -827 -251
-339 -125 -345 -127 -866 -334 -212 -84 -459 -180 -550 -213 -1238 -452 -2722
-1030 -3705 -1442 -208 -87 -201 -84 -195 -78 3 3 100 59 215 123 777 436
1257 681 2170 1108 840 393 2010 861 3090 1237 616 215 610 212 659 270 123
147 27 375 -162 388 -83 5 -411 -94 -1232 -374 -157 -53 -463 -156 -680 -229
-415 -139 -617 -208 -1045 -357 -143 -50 -451 -155 -685 -233 -529 -178 -922
-314 -1335 -461 -176 -63 -369 -132 -430 -153 -185 -65 -606 -219 -674 -246
-36 -13 -66 -23 -68 -21 -4 4 547 279 887 441 591 283 1230 570 2015 903 452
192 365 156 1095 451 248 99 616 242 925 357 293 109 321 122 377 173 62 55
87 108 88 179 0 68 -21 117 -73 170 -51 52 -125 78 -194 67 -63 -9 -784 -239
-1548 -492 -830 -276 -1081 -363 -1783 -623 -316 -116 -576 -210 -578 -207 -6
6 365 175 1096 499 74 33 243 106 375 163 132 57 330 142 440 190 252 110 807
336 1030 421 193 73 266 117 309 187 73 119 27 277 -99 336 -81 38 -159 30
-453 -45 -503 -128 -974 -262 -1344 -383 -633 -206 -863 -280 -865 -277 -5 4
454 180 902 346 332 123 401 162 450 260 23 45 31 165 15 215 -26 79 -111 146
-201 160 -88 13 -488 -49 -859 -134 -118 -27 -303 -70 -410 -94 -180 -42 -561
-150 -990 -282 -96 -30 -285 -88 -420 -129 -135 -41 -299 -93 -365 -115 -147
-49 -485 -188 -581 -240 -39 -21 -97 -48 -130 -60 -76 -29 -119 -62 -146 -114
-49 -94 -16 -215 74 -275 36 -23 52 -27 112 -27 75 1 168 26 261 73 47 24 246
95 251 89 1 -1 -156 -78 -349 -172 -600 -291 -1586 -831 -1916 -1050 -132 -87
-163 -128 -169 -219 -5 -81 10 -128 60 -182 42 -46 108 -78 179 -89 61 -9 131
9 328 86 86 33 298 114 471 179 173 65 398 151 500 190 102 40 347 132 545
205 198 73 455 169 570 213 116 44 219 83 230 87 11 4 -227 -119 -530 -272
-302 -154 -658 -338 -790 -410 -237 -129 -356 -193 -630 -341 -209 -113 -1230
-697 -1307 -748 -117 -78 -161 -146 -160 -246 0 -107 75 -199 187 -230 79 -21
142 -13 261 36 158 64 283 117 404 171 58 26 240 105 405 177 165 72 338 148
385 168 47 21 218 95 380 165 162 70 298 129 302 132 5 2 8 2 8 0 0 -3 -51
-33 -112 -67 -330 -185 -867 -503 -1198 -710 -129 -81 -365 -229 -525 -328
-644 -402 -653 -408 -702 -474 -34 -47 -48 -124 -33 -187 17 -73 58 -124 127
-157 49 -25 70 -29 138 -29 90 0 60 -12 575 235 308 148 799 375 1010 468 63
27 174 76 245 107 441 195 883 376 1425 585 330 128 458 174 445 162 -5 -5
-140 -83 -300 -172 -505 -283 -1161 -677 -1660 -996 -1096 -702 -1850 -1208
-1932 -1297 -82 -89 -84 -215 -5 -307 39 -47 71 -65 136 -80 103 -23 211 23
736 310 175 97 761 396 1010 517 332 162 1028 488 1096 513 45 17 24 3 -226
-155 -652 -413 -1394 -927 -2135 -1480 -456 -341 -492 -373 -515 -454 -44
-159 68 -304 235 -302 86 0 132 20 393 164 959 531 1571 857 2251 1197 395
197 432 211 231 90 -355 -216 -1068 -676 -1390 -897 -80 -55 -305 -209 -500
-343 -457 -313 -548 -378 -817 -582 -309 -235 -350 -284 -341 -408 6 -77 46
-144 112 -185 46 -28 56 -30 145 -30 89 1 101 3 171 36 41 20 323 158 625 306
520 256 994 484 1295 623 74 35 207 96 295 137 147 69 286 132 547 249 54 24
142 64 195 88 439 197 613 275 708 316 61 26 157 69 215 95 161 71 267 116
250 104 -8 -5 -150 -92 -315 -193 -503 -306 -1190 -739 -1840 -1160 -376 -243
-1388 -933 -1580 -1076 -202 -152 -240 -203 -233 -314 5 -83 44 -148 112 -191
43 -26 59 -30 120 -30 65 0 80 4 166 47 52 26 154 80 225 121 243 137 849 473
1085 602 129 70 287 155 350 190 63 34 219 118 345 185 127 67 291 155 365
195 74 40 239 128 365 195 367 196 1545 829 1860 1000 94 51 233 126 310 167
77 42 223 121 325 176 393 213 530 287 675 364 83 44 236 127 340 183 224 121
394 212 680 365 116 62 307 164 425 227 211 113 327 174 925 488 340 179 825
423 825 415 0 -2 -19 -14 -42 -26 -24 -12 -189 -105 -368 -207 -931 -530
-1751 -1026 -2745 -1662 -202 -129 -334 -214 -890 -575 -754 -489 -1670 -1106
-2295 -1547 -389 -274 -1292 -921 -1555 -1114 -165 -121 -363 -265 -440 -319
-329 -232 -373 -265 -414 -310 -54 -59 -73 -104 -73 -177 0 -82 40 -152 112
-195 47 -28 63 -33 120 -33 79 0 104 12 250 120 297 219 778 513 1785 1090
965 553 2258 1303 3075 1783 1618 951 2300 1344 3215 1852 335 186 669 367
1160 628 691 368 1964 1004 2840 1420 110 52 337 160 505 239 168 80 373 177
455 216 562 264 839 394 965 452 80 37 190 88 244 114 55 25 101 45 103 43 3
-4 -110 -63 -702 -372 -1153 -601 -1179 -615 -1685 -883 -482 -255 -928 -494
-1565 -839 -825 -447 -1835 -1008 -2735 -1520 -888 -505 -2335 -1373 -3220
-1931 -880 -556 -2081 -1358 -2590 -1731 -356 -261 -825 -623 -1005 -776 -146
-125 -328 -301 -383 -373 -67 -87 -79 -181 -33 -270 43 -84 119 -125 231 -125
94 0 108 7 345 168 730 496 1520 962 3185 1880 279 154 404 223 510 280 63 34
228 123 365 197 138 74 363 195 500 268 138 73 324 172 415 220 91 48 305 161
475 250 407 214 1004 530 1570 832 160 85 416 221 570 303 154 81 326 172 383
201 114 61 139 67 35 8 -137 -75 -656 -372 -923 -527 -151 -88 -318 -185 -370
-215 -499 -288 -1802 -1087 -2420 -1482 -426 -272 -1044 -684 -1517 -1011
-194 -134 -412 -284 -485 -334 -225 -154 -506 -356 -851 -613 -183 -136 -408
-304 -501 -372 -584 -433 -639 -478 -677 -557 -44 -92 -24 -208 48 -274 49
-46 93 -62 180 -67 75 -4 87 -2 145 25 72 34 734 393 1233 668 340 188 484
267 1078 592 341 186 906 501 1127 628 246 140 268 149 120 48 -269 -184
-1247 -879 -1905 -1353 -264 -190 -559 -401 -655 -470 -784 -555 -810 -579
-810 -730 1 -110 89 -207 207 -226 79 -12 132 14 444 219 434 286 783 504
1689 1054 725 440 1111 680 2503 1557 1818 1145 2382 1493 3112 1921 347 204
1036 597 1370 782 577 321 751 417 1070 590 1050 572 917 500 1520 823 486
259 1218 640 1232 640 3 0 -102 -64 -233 -143 -766 -459 -1375 -849 -2634
-1688 -1079 -719 -2016 -1352 -2551 -1722 -48 -34 -230 -159 -404 -277 -342
-233 -673 -460 -1395 -955 -653 -447 -633 -434 -755 -517 -60 -41 -231 -157
-380 -258 -265 -180 -534 -366 -930 -644 -222 -155 -714 -510 -1320 -951 -481
-350 -523 -379 -693 -484 -146 -91 -518 -365 -597 -440 -27 -27 -97 -84 -155
-127 -129 -97 -186 -152 -210 -207 -46 -101 -4 -223 94 -274 36 -19 150 -37
228 -37 63 0 92 16 208 109 34 28 140 96 236 152 l175 102 -100 -105 c-129
-135 -165 -203 -159 -298 5 -77 37 -132 106 -181 36 -25 55 -30 115 -33 125
-6 164 17 629 372 1142 873 1985 1469 3053 2158 531 343 1442 901 2030 1245
94 55 316 185 495 290 360 210 1073 622 1360 785 102 58 358 203 570 323 212
120 419 237 460 260 41 24 161 91 265 150 105 59 255 145 335 190 80 45 240
135 355 200 116 65 323 182 460 260 224 127 664 373 723 404 49 26 18 0 -50
-42 -506 -309 -1524 -945 -2028 -1265 -583 -372 -872 -560 -1469 -960 -707
-474 -1175 -799 -1986 -1379 -1797 -1286 -1890 -1352 -2360 -1699 -126 -94
-315 -232 -420 -309 -104 -76 -365 -269 -580 -430 -214 -160 -457 -338 -540
-395 -195 -135 -568 -417 -632 -478 -79 -76 -104 -121 -110 -196 -5 -57 -2
-72 22 -121 32 -67 84 -108 156 -125 143 -34 188 -11 1169 605 217 137 640
395 940 575 512 307 932 561 1150 695 52 32 280 171 505 308 531 324 932 572
1332 823 675 426 718 453 683 425 -28 -23 -626 -458 -955 -695 -835 -603
-1662 -1219 -2155 -1605 -236 -185 -494 -384 -635 -491 -141 -107 -389 -300
-535 -415 -36 -28 -92 -72 -125 -98 -325 -254 -349 -275 -381 -352 -21 -51
-18 -138 7 -188 47 -93 109 -131 214 -131 47 0 80 5 102 17 27 15 386 292
1033 798 214 168 354 272 720 539 146 107 409 300 585 429 1226 901 1876 1345
3115 2131 124 78 266 168 315 199 509 324 872 546 1615 986 166 98 942 545
995 573 36 19 -25 -25 -110 -78 -801 -505 -2112 -1379 -2810 -1873 -421 -299
-1014 -736 -1316 -972 -42 -33 -206 -161 -365 -285 -323 -252 -1322 -1049
-1659 -1326 -121 -99 -344 -276 -495 -394 -151 -118 -333 -261 -405 -319 -71
-58 -197 -160 -280 -226 -82 -67 -316 -249 -520 -405 -438 -337 -496 -390
-520 -474 -15 -50 -16 -68 -6 -112 30 -132 151 -210 283 -183 57 12 76 20 613
297 318 163 628 326 1115 587 543 290 883 488 1820 1058 316 193 710 432 875
532 612 371 872 531 1655 1022 316 198 719 449 895 558 518 321 901 559 1210
754 359 227 344 218 325 199 -8 -9 -188 -132 -400 -274 -212 -142 -486 -327
-610 -411 -308 -209 -1112 -744 -1682 -1120 -260 -172 -657 -438 -883 -592
-225 -153 -509 -346 -629 -427 -559 -380 -1569 -1100 -2020 -1442 -432 -326
-818 -616 -976 -732 -249 -182 -309 -255 -310 -374 0 -103 50 -175 160 -231
74 -38 146 -35 252 11 168 72 450 233 818 469 113 72 318 203 455 292 138 88
369 236 515 328 355 226 692 444 1120 725 621 408 897 583 1699 1074 293 180
712 439 931 576 219 137 521 325 671 418 339 209 848 531 1295 818 392 251
392 251 379 237 -18 -18 -691 -479 -1655 -1133 -173 -118 -349 -237 -390 -265
-224 -154 -656 -450 -875 -598 -137 -94 -347 -236 -465 -317 -118 -81 -503
-340 -855 -575 -352 -236 -721 -484 -820 -551 -99 -68 -333 -225 -520 -351
-302 -203 -721 -488 -1055 -718 -460 -316 -1004 -731 -1147 -874 -60 -61 -85
-108 -91 -172 -7 -73 20 -139 79 -194 102 -96 185 -108 346 -50 215 78 635
306 1358 735 223 132 718 425 765 453 54 31 29 11 -155 -128 -93 -71 -303
-232 -465 -359 -460 -358 -577 -448 -835 -641 -370 -278 -410 -322 -410 -450
0 -58 5 -78 27 -116 31 -52 77 -91 144 -121 36 -15 62 -19 113 -16 77 4 260
75 617 238 120 55 211 93 203 86 -8 -7 -88 -69 -179 -136 -199 -149 -286 -233
-331 -320 -29 -57 -33 -74 -33 -140 0 -62 4 -84 26 -125 71 -136 201 -186 392
-151 89 17 180 45 434 135 78 27 142 48 142 46 0 -2 -46 -37 -102 -77 -95 -67
-282 -204 -503 -369 -107 -79 -190 -164 -212 -216 -18 -44 -20 -164 -3 -208
21 -56 61 -102 113 -131 48 -27 60 -29 152 -29 l100 0 -61 -60 c-72 -71 -104
-143 -104 -235 0 -207 179 -355 337 -279 67 33 99 78 129 186 1 6 45 40 96 74
159 106 249 179 380 310 83 82 151 140 195 165 77 45 116 94 133 164 21 86 -7
168 -79 233 -64 58 -121 67 -271 43 -47 -8 -86 -13 -87 -12 -10 9 900 626
1245 845 393 248 442 297 442 438 0 71 -27 131 -81 177 -69 59 -166 70 -279
33 -25 -8 -124 -41 -220 -72 -293 -95 -543 -182 -805 -280 -137 -52 -259 -97
-270 -101 -11 -4 21 24 70 61 221 166 781 579 887 653 169 118 681 459 897
596 440 281 1372 826 1860 1088 276 148 315 188 315 323 0 78 -14 113 -65 164
-43 43 -82 62 -144 68 -66 7 -104 -5 -235 -77 -173 -94 -392 -211 -615 -328
-115 -60 -300 -158 -410 -217 -347 -186 -1159 -617 -1640 -870 -154 -81 -327
-173 -385 -205 -182 -99 -360 -192 -360 -187 0 8 785 594 1015 759 656 468
1483 1015 2080 1375 55 33 222 132 371 220 646 382 1046 644 1814 1187 1333
942 1716 1195 2165 1434 387 205 439 252 439 392 0 153 -131 261 -281 230 -74
-16 -124 -41 -543 -280 -74 -42 -184 -103 -245 -135 -357 -189 -689 -373
-1045 -580 -135 -79 -402 -234 -595 -345 -192 -112 -525 -310 -740 -440 -628
-381 -701 -425 -1090 -655 -203 -120 -527 -312 -720 -428 -476 -286 -595 -356
-595 -352 0 2 127 90 283 196 155 106 401 274 547 374 479 329 936 640 1395
950 239 162 914 623 1060 725 292 204 937 647 1720 1184 419 287 1283 893
1650 1159 379 274 742 566 797 640 87 119 91 233 11 326 -51 60 -109 84 -193
79 -63 -3 -84 -11 -267 -102 -667 -329 -1625 -853 -2303 -1259 -496 -297 -819
-498 -1735 -1084 -598 -382 -562 -359 -550 -346 6 5 150 104 320 219 291 195
711 483 925 634 52 37 282 197 510 357 757 529 1309 916 1864 1307 793 560
1357 949 1873 1294 249 167 285 199 324 288 17 38 20 60 16 112 -6 76 -38 129
-105 177 -36 25 -55 30 -115 33 l-72 4 -230 -116 c-232 -116 -437 -224 -815
-429 -331 -179 -525 -292 -1472 -855 -244 -145 -1082 -661 -1418 -872 -146
-91 -384 -240 -530 -330 -359 -222 -815 -507 -1495 -936 -313 -198 -761 -479
-995 -624 -234 -145 -812 -505 -1285 -800 -834 -521 -1138 -709 -1545 -955
-107 -65 -442 -269 -745 -453 -974 -594 -1418 -857 -1355 -802 112 96 1108
895 1470 1179 129 102 264 208 300 236 815 646 1716 1294 2870 2064 577 384
652 434 1130 741 173 111 338 217 365 235 476 307 1543 962 2175 1335 96 56
195 115 220 130 62 38 436 257 850 497 1025 596 2142 1223 2465 1386 168 84
206 112 239 178 79 159 -33 339 -211 339 -60 0 -58 1 -383 -144 -118 -53 -498
-221 -905 -402 -385 -171 -491 -218 -629 -283 -60 -28 -111 -50 -113 -47 -2 2
60 41 139 86 516 299 1921 1138 2162 1291 172 109 276 199 301 261 22 55 22
171 0 224 -37 88 -120 143 -218 144 -70 0 -112 -15 -337 -120 -96 -44 -240
-111 -320 -148 -80 -36 -370 -178 -645 -315 -275 -138 -563 -278 -640 -314
-77 -35 -201 -96 -275 -137 -219 -119 -563 -302 -905 -481 -176 -92 -367 -193
-425 -225 -58 -32 -240 -131 -405 -220 -719 -389 -1605 -882 -2045 -1138 -296
-172 -692 -405 -855 -504 -574 -348 -710 -431 -805 -490 -249 -153 -640 -397
-975 -606 -198 -124 -470 -293 -605 -377 -872 -540 -1079 -669 -1460 -909
-234 -148 -434 -274 -445 -281 -11 -6 -46 -29 -77 -49 -129 -82 -40 -14 290
220 483 344 473 337 802 566 1413 981 2468 1656 5555 3553 127 77 343 211 480
297 138 85 378 235 535 333 1109 691 1841 1132 3045 1835 380 222 549 327 605
377 62 56 102 143 102 223 0 149 -133 258 -280 230 -85 -16 -105 -25 -1047
-483 -203 -99 -450 -217 -547 -263 -165 -77 -384 -190 -703 -361 -71 -38 -267
-143 -435 -233 -168 -89 -453 -242 -635 -340 -181 -97 -451 -241 -600 -320
-511 -270 -1028 -546 -1320 -705 -99 -54 -227 -124 -285 -155 -278 -151 -1251
-697 -2200 -1235 -168 -95 -561 -318 -875 -495 -313 -177 -649 -367 -745 -422
-244 -140 -266 -152 -255 -140 9 9 375 238 1195 749 1796 1118 3450 2076 6035
3493 1388 761 1921 1067 2245 1287 228 156 281 208 305 301 27 104 -27 240
-119 296 -80 50 -141 48 -306 -9 -74 -26 -148 -54 -165 -62 -42 -21 -22 -4 68
57 119 81 156 132 177 241 20 105 -28 208 -120 254 l-50 25 35 32 c60 52 68
78 71 218 4 162 -4 192 -70 256 -78 76 -165 91 -275 47 -20 -7 -139 -65 -266
-128 -126 -62 -282 -134 -345 -158 -63 -25 -250 -104 -415 -175 -165 -71 -372
-160 -460 -197 -1160 -488 -1385 -591 -2360 -1077 -621 -311 -845 -425 -1525
-781 -389 -203 -621 -326 -870 -460 -277 -149 -431 -232 -685 -367 -126 -68
-277 -149 -335 -180 -58 -31 -217 -117 -355 -190 -137 -73 -351 -187 -475
-253 -380 -202 -526 -280 -765 -407 -254 -135 -331 -177 -740 -400 -591 -323
-903 -497 -1985 -1108 -733 -414 -1203 -683 -1915 -1095 -466 -270 -1230 -709
-1435 -824 -94 -54 -13 3 345 240 1039 686 2329 1476 3656 2240 892 513 2508
1409 3404 1887 127 67 295 158 375 200 516 276 2560 1331 3840 1982 1790 911
2052 1047 2573 1336 280 156 328 192 368 275 55 117 35 236 -52 310 -81 70
-170 73 -334 12 -124 -46 -823 -341 -1142 -481 -71 -31 -180 -79 -243 -106
-63 -27 -153 -67 -200 -88 -47 -21 -166 -74 -265 -118 -274 -123 -692 -316
-1095 -507 -113 -53 -272 -129 -355 -167 -82 -38 -427 -206 -765 -373 -845
-416 -2016 -985 -2026 -985 -12 0 -1437 -708 -2144 -1065 -1104 -558 -1676
-854 -2615 -1355 -121 -65 -328 -175 -460 -245 -132 -70 -310 -164 -395 -210
-288 -153 -493 -262 -875 -463 -570 -299 -898 -473 -1120 -592 -344 -185 -360
-193 -350 -183 23 23 898 561 1555 955 738 443 1177 699 2060 1200 395 225
1133 634 1685 936 663 362 741 405 880 479 72 39 278 150 460 248 554 299
1264 673 2180 1150 193 100 456 237 585 305 129 67 334 174 455 237 121 63
308 161 415 218 107 56 335 176 505 265 171 89 398 209 505 265 107 56 366
191 575 300 1168 608 1390 731 1471 810 110 109 119 279 20 377 -69 69 -157
84 -294 48 -175 -45 -1223 -406 -1481 -509 -503 -203 -1005 -415 -1701 -716
-261 -113 -717 -322 -1115 -510 -148 -70 -335 -158 -415 -195 -272 -127 -635
-298 -890 -420 -140 -67 -325 -155 -410 -195 -506 -238 -1453 -705 -2025
-1000 -618 -318 -866 -449 -1525 -805 -274 -148 -957 -530 -1365 -763 -231
-132 -451 -258 -490 -280 -73 -41 -286 -165 -342 -199 -18 -11 -33 -17 -33
-14 0 12 971 606 1480 904 1694 993 3834 2105 5460 2837 52 24 151 68 220 100
820 372 1708 754 2780 1195 217 89 496 204 620 255 124 51 308 127 410 168
876 355 849 343 914 418 82 97 75 224 -18 315 -59 58 -125 81 -195 69 -22 -4
-210 -63 -417 -131 -207 -68 -378 -124 -379 -124 -1 0 8 21 21 47 36 69 33
152 -6 220 -64 112 -178 145 -335 96 -92 -29 -947 -350 -1245 -468 -162 -64
-405 -159 -540 -210 -135 -52 -333 -128 -440 -170 -261 -102 -634 -242 -811
-305 -218 -78 -281 -100 -574 -205 -528 -190 -658 -235 -662 -232 -7 8 1209
603 1607 787 69 32 233 108 365 169 132 62 301 136 375 166 286 113 775 345
861 409 86 63 123 189 84 282 -36 87 -132 164 -220 178 -73 12 -337 -62 -955
-268 -183 -60 -1140 -409 -1229 -447 -13 -5 -26 -8 -28 -5 -2 2 67 40 154 85
87 44 246 128 353 187 322 174 366 209 396 309 35 123 -19 230 -146 289 -45
21 -69 26 -130 25 -41 -1 -86 -4 -100 -6z m750 -8408 c0 -2 -10 -9 -22 -15
-22 -11 -22 -10 -4 4 21 17 26 19 26 11z"/>
</g>
</svg>
